<svg width="736" height="272" viewBox="0 0 736 272" fill="none" xmlns="http://www.w3.org/2000/svg">
<path d="M192.565 37.7489C185.407 36.528 178.158 35.8995 170.894 35.87C146.111 35.8499 121.844 42.8867 100.987 56.1416C80.076 43.0607 55.8133 36.1967 31.0796 36.3645C23.8157 36.3939 16.5669 37.0224 9.40832 38.2433C7.0635 38.6436 4.94006 39.8597 3.4204 41.6726C1.90074 43.4855 1.08473 45.7761 1.11932 48.1319V166.795C1.09793 168.248 1.40021 169.687 2.00465 171.011C2.60908 172.336 3.50082 173.512 4.61642 174.456C5.73201 175.4 7.04403 176.089 8.45914 176.474C9.87425 176.859 11.3577 176.93 12.8038 176.683C27.115 174.23 41.7774 174.637 55.9273 177.88C70.0771 181.124 83.4284 187.139 95.1945 195.57L96.3929 196.263H97.4914C98.599 196.719 99.787 196.955 100.987 196.955C102.187 196.955 103.375 196.719 104.482 196.263H105.581L106.779 195.57C118.463 186.95 131.776 180.741 145.929 177.31C160.081 173.878 174.785 173.296 189.17 175.595C190.616 175.843 192.099 175.771 193.514 175.386C194.93 175.001 196.242 174.312 197.357 173.368C198.473 172.424 199.365 171.248 199.969 169.924C200.573 168.6 200.876 167.16 200.854 165.707V47.0441C200.75 44.791 199.872 42.6408 198.364 40.9502C196.856 39.2595 194.81 38.1299 192.565 37.7489ZM91.0001 169.168C72.5234 159.543 51.957 154.52 31.0796 154.533C27.7839 154.533 24.4883 154.533 21.0928 154.533V55.6472C24.419 55.4574 27.7534 55.4574 31.0796 55.6472C52.3852 55.6238 73.2258 61.8146 91.0001 73.4466V169.168ZM180.881 154.928C177.485 154.928 174.19 154.928 170.894 154.928C150.017 154.916 129.45 159.939 110.974 169.563V73.4466C128.748 61.8146 149.588 55.6238 170.894 55.6472C174.22 55.4574 177.555 55.4574 180.881 55.6472V154.928ZM192.565 195.966C185.407 194.745 178.158 194.117 170.894 194.087C146.111 194.067 121.844 201.104 100.987 214.359C80.1296 201.104 55.863 194.067 31.0796 194.087C23.8157 194.117 16.5669 194.745 9.40832 195.966C8.10832 196.17 6.86193 196.627 5.74081 197.31C4.6197 197.993 3.64598 198.888 2.87566 199.945C2.10533 201.002 1.5536 202.199 1.25218 203.468C0.950768 204.736 0.905615 206.052 1.11932 207.338C1.62684 209.906 3.14154 212.17 5.33164 213.634C7.52173 215.098 10.2087 215.643 12.8038 215.15C27.115 212.696 41.7774 213.103 55.9273 216.347C70.0771 219.591 83.4284 225.605 95.1945 234.037C96.8859 235.229 98.9105 235.87 100.987 235.87C103.063 235.87 105.088 235.229 106.779 234.037C118.545 225.605 131.896 219.591 146.046 216.347C160.196 213.103 174.859 212.696 189.17 215.15C191.765 215.643 194.452 215.098 196.642 213.634C198.832 212.17 200.347 209.906 200.854 207.338C201.068 206.052 201.023 204.736 200.721 203.468C200.42 202.199 199.868 201.002 199.098 199.945C198.328 198.888 197.354 197.993 196.233 197.31C195.112 196.627 193.865 196.17 192.565 195.966Z" fill="#FFC400"/>
<line x1="256" y1="0.0184501" x2="255" y2="271.018" stroke="black" stroke-width="10"/>
<path d="M303.36 83.2H346.2C357.12 83.2 366.127 84.1333 373.22 86C380.313 87.7733 385.913 90.34 390.02 93.7C394.22 97.06 397.3 101.12 399.26 105.88C401.22 110.64 402.433 116.007 402.9 121.98C403.46 127.86 403.693 134.207 403.6 141.02C403.507 146.247 403.273 151.333 402.9 156.28C402.527 161.227 401.453 165.8 399.68 170C398 174.2 395.153 177.887 391.14 181.06C387.127 184.233 381.48 186.707 374.2 188.48C366.92 190.16 357.493 191 345.92 191H303.36V83.2ZM356.28 152.36V122.12C356.28 121.747 356.093 121.047 355.72 120.02C355.44 118.9 354.367 118.34 352.5 118.34C350.633 118.34 349.513 118.9 349.14 120.02C348.86 121.047 348.72 121.747 348.72 122.12V152.36C348.72 152.64 348.86 153.34 349.14 154.46C349.513 155.58 350.633 156.14 352.5 156.14C354.367 156.14 355.44 155.58 355.72 154.46C356.093 153.34 356.28 152.64 356.28 152.36ZM453.28 191.14L409.18 191V83.2H453.28V191.14ZM570.216 191H524.856L523.456 178.12H503.576L502.176 191H456.816L484.536 83.2H542.496L570.216 191ZM509.736 123.1L508.196 136.54H518.836L517.296 123.1H509.736ZM617.343 191H573.243V83.2H637.363C643.336 83.2 648.796 84.2733 653.743 86.42C658.783 88.5667 662.796 92.02 665.783 96.78C668.769 101.54 670.263 107.887 670.263 115.82C670.263 118.06 670.076 120.487 669.703 123.1C669.423 125.713 668.723 128.327 667.603 130.94C666.483 133.46 664.756 135.747 662.423 137.8C660.183 139.76 657.103 141.3 653.183 142.42L675.303 191H626.163L618.603 162.16H617.343V191ZM627.003 117.64H613.563V125.2H627.423C628.169 125.2 628.963 124.967 629.803 124.5C630.736 124.033 631.203 123.053 631.203 121.56C631.203 119.973 630.689 118.947 629.663 118.48C628.636 117.92 627.749 117.64 627.003 117.64ZM722.753 191.14L678.653 191V83.2H722.753V191.14Z" fill="black"/>
</svg>
