<svg width="200" height="200" viewBox="0 0 200 200" fill="none" xmlns="http://www.w3.org/2000/svg">
<path d="M191.578 1.87887C184.42 0.657961 177.171 0.0295143 169.907 4.30177e-05C145.124 -0.0200751 120.857 7.0167 100 20.2716C79.0892 7.19074 54.8264 0.32667 30.0928 0.494471C22.8289 0.523942 15.5801 1.15239 8.42151 2.3733C6.07668 2.77357 3.95324 3.98967 2.43359 5.80258C0.913926 7.61549 0.0979153 9.90609 0.132507 12.2619V130.925C0.111118 132.378 0.413396 133.817 1.01783 135.141C1.62227 136.466 2.51401 137.642 3.6296 138.586C4.74519 139.53 6.05722 140.219 7.47233 140.604C8.88743 140.989 10.3708 141.06 11.817 140.813C26.1282 138.36 40.7906 138.767 54.9404 142.01C69.0903 145.254 82.4415 151.269 94.2077 159.7L95.4061 160.393H96.5046C97.6122 160.849 98.8001 161.085 100 161.085C101.2 161.085 102.388 160.849 103.495 160.393H104.594L105.792 159.7C117.476 151.08 130.789 144.871 144.942 141.44C159.094 138.008 173.799 137.426 188.183 139.725C189.629 139.973 191.113 139.901 192.528 139.516C193.943 139.131 195.255 138.442 196.37 137.498C197.486 136.554 198.378 135.378 198.982 134.054C199.587 132.73 199.889 131.29 199.867 129.837V11.1741C199.764 8.92104 198.885 6.77085 197.377 5.08017C195.87 3.3895 193.824 2.25994 191.578 1.87887ZM90.0132 133.298C71.5366 123.673 50.9702 118.65 30.0928 118.663C26.7971 118.663 23.5015 118.663 20.106 118.663V19.7772C23.4322 19.5874 26.7666 19.5874 30.0928 19.7772C51.3983 19.7539 72.239 25.9446 90.0132 37.5766V133.298ZM179.894 119.058C176.498 119.058 173.203 119.058 169.907 119.058C149.03 119.046 128.463 124.069 109.987 133.693V37.5766C127.761 25.9446 148.602 19.7539 169.907 19.7772C173.233 19.5874 176.568 19.5874 179.894 19.7772V119.058ZM191.578 160.096C184.42 158.875 177.171 158.247 169.907 158.217C145.124 158.197 120.857 165.234 100 178.489C79.1428 165.234 54.8762 158.197 30.0928 158.217C22.8289 158.247 15.5801 158.875 8.42151 160.096C7.12151 160.3 5.87511 160.757 4.754 161.44C3.63288 162.123 2.65917 163.018 1.88884 164.075C1.11852 165.132 0.566785 166.329 0.265368 167.598C-0.0360488 168.867 -0.0812012 170.182 0.132507 171.468C0.64002 174.036 2.15473 176.3 4.34482 177.764C6.53491 179.228 9.22184 179.773 11.817 179.28C26.1282 176.826 40.7906 177.233 54.9404 180.477C69.0903 183.721 82.4415 189.735 94.2077 198.167C95.8991 199.359 97.9237 200 100 200C102.076 200 104.101 199.359 105.792 198.167C117.558 189.735 130.91 183.721 145.06 180.477C159.209 177.233 173.872 176.826 188.183 179.28C190.778 179.773 193.465 179.228 195.655 177.764C197.845 176.3 199.36 174.036 199.867 171.468C200.081 170.182 200.036 168.867 199.735 167.598C199.433 166.329 198.881 165.132 198.111 164.075C197.341 163.018 196.367 162.123 195.246 161.44C194.125 160.757 192.878 160.3 191.578 160.096Z" fill="#FFC400"/>
</svg>
